PathFileType	4	(X/Y/Z)	C:/Users/opensim2020/Desktop/walking_exp_matlab/subject01_walking14_straight_02.trc	
DataRate	CameraRate	NumFrames	NumMarkers	Units	OrigDataRate	OrigDataStartFrame	OrigNumFrames	
100.00	100.00	6	42	mm	100.00	1225	125	
Frame#	Time	LFHD			RFHD			LBHD			RBHD			C7			T10			CLAV			STRN			RBAK			LSHO			LUPA			LELB			LFRM			LWRA			LWRB			LFIN			RSHO			RUPA			RELB			RFRM			RWRA			RWRB			RFIN			LASI			RASI			LPSI			RPSI			LTHI			LKNE			LTIB			LANK			LHEE			LTOE			RTHI			RKNE			RTIB			RANK			RHEE			RTOE			*39			*40			*41			
		X1	Y1	Z1	X2	Y2	Z2	X3	Y3	Z3	X4	Y4	Z4	X5	Y5	Z5	X6	Y6	Z6	X7	Y7	Z7	X8	Y8	Z8	X9	Y9	Z9	X10	Y10	Z10	X11	Y11	Z11	X12	Y12	Z12	X13	Y13	Z13	X14	Y14	Z14	X15	Y15	Z15	X16	Y16	Z16	X17	Y17	Z17	X18	Y18	Z18	X19	Y19	Z19	X20	Y20	Z20	X21	Y21	Z21	X22	Y22	Z22	X23	Y23	Z23	X24	Y24	Z24	X25	Y25	Z25	X26	Y26	Z26	X27	Y27	Z27	X28	Y28	Z28	X29	Y29	Z29	X30	Y30	Z30	X31	Y31	Z31	X32	Y32	Z32	X33	Y33	Z33	X34	Y34	Z34	X35	Y35	Z35	X36	Y36	Z36	X37	Y37	Z37	X38	Y38	Z38	X39	Y39	Z39	X40	Y40	Z40	X41	Y41	Z41	X42	Y42	Z42	

79	0.780	-1066.77759	-51.64006	1666.18018	-1162.93103	-112.81107	1665.84888	-1126.70667	53.15189	1631.72742	-1228.30701	-9.45149	1630.67029	-1147.54468	94.94697	1435.85059	-1140.55151	137.90019	1140.75879	-1129.79407	-48.70390	1363.53882	-1119.64465	-87.05165	1210.80701	-1219.17981	149.75299	1241.10718	-977.42786	28.40943	1401.49194	-886.21179	75.05660	1225.98914	-875.27234	91.78938	1072.72815	-853.65601	18.25044	980.04559	-871.43823	-98.38397	906.41925	-851.98291	-49.59438	878.19751	-840.46442	-119.79251	833.28851	-1285.59460	3.76124	1395.45239	-1388.98950	64.65979	1200.43689	-1394.54834	65.05594	1074.58496	-1424.57056	37.37069	957.23663	-1402.16016	-40.18339	838.51190	-1442.37805	0.83198	840.47766	-1446.63440	-37.34015	764.79028	-1023.21301	-36.72010	934.95966	-1239.57776	-48.08298	941.18799	-1082.06042	144.55920	942.62524	-1227.00757	137.81816	953.09210	-956.35822	-56.66680	602.57849	-963.22784	-66.29677	471.21298	-969.16919	76.37346	359.99243	-1028.36108	234.40170	211.82199	-1089.72131	276.79248	218.37212	-1012.18018	172.26472	79.76512	-1294.89429	-9.63079	605.26843	-1268.40662	-25.01539	446.26593	-1274.45288	40.50875	280.35068	-1220.99719	84.66671	80.13391	-1171.85010	137.74672	46.97021	-1215.52417	-53.58750	34.77877	-1147.63232	-96.14249	1701.01404	-3102.03174	1973.16467	1023.43750	-3140.65161	2012.54224	1022.09833 
80	0.790	-1066.13086	-64.96075	1666.85828	-1161.95898	-126.35950	1666.58813	-1126.56238	39.65298	1632.97412	-1227.77441	-23.07641	1631.92700	-1148.02161	81.99734	1437.03748	-1141.33154	125.33561	1141.99377	-1129.81726	-61.53511	1364.55090	-1119.97876	-99.51909	1211.68933	-1220.35498	136.61087	1242.61438	-977.62549	15.94740	1402.35706	-886.96155	63.90732	1226.87854	-877.19171	82.30233	1073.70154	-854.84705	12.58192	978.46375	-871.31982	-101.19503	900.03058	-852.79822	-51.02751	873.82251	-840.38763	-118.87178	825.84198	-1285.59729	-9.57280	1397.17566	-1389.88281	49.78445	1202.28772	-1396.14453	48.73380	1076.15808	-1425.57581	16.92636	959.41626	-1402.66846	-64.96090	843.87231	-1442.76001	-24.02575	844.09973	-1446.94116	-65.08466	770.05017	-1024.37378	-49.35723	936.41345	-1240.83875	-59.78953	941.88391	-1081.63147	132.20621	944.09686	-1226.50671	126.10377	954.61517	-956.50812	-75.24651	605.62329	-964.16718	-87.31364	474.38016	-971.64581	51.93717	358.72870	-1031.03015	202.45131	203.01445	-1092.06909	246.36731	207.08249	-1014.15601	132.00122	75.92378	-1294.86633	-15.54840	605.77124	-1268.67859	-27.83810	446.47800	-1274.42285	39.26603	281.30594	-1220.87439	84.19629	81.13082	-1171.48389	137.05612	48.39219	-1215.68469	-53.78752	34.79608	-1146.66052	-109.69154	1701.69678	-3101.97559	1973.17920	1023.49084	-3140.68604	2012.52759	1022.12604 
81	0.800	-1065.37561	-78.29530	1667.28796	-1161.07642	-139.89859	1667.25439	-1126.07251	26.34901	1633.93884	-1227.23267	-36.68696	1633.05859	-1148.28552	69.13728	1438.07141	-1142.05432	112.77393	1143.11011	-1129.85205	-74.30163	1365.35620	-1120.25940	-112.03157	1212.37341	-1221.42175	123.50674	1243.98438	-977.77307	3.41270	1403.00684	-887.64520	52.68046	1227.60266	-879.00482	72.98686	1074.84656	-856.02594	7.06972	976.91223	-871.21631	-103.70174	893.76990	-853.42096	-52.24659	869.75482	-840.25824	-117.52825	818.71661	-1285.55420	-22.88236	1398.81104	-1390.97241	35.03793	1204.12195	-1397.60620	32.68391	1077.65540	-1426.53967	-3.25557	961.66559	-1403.12134	-89.51253	849.51947	-1443.15271	-48.50060	847.87744	-1447.18066	-92.64066	775.77362	-1025.32458	-61.81479	937.65631	-1241.79541	-71.39885	942.37872	-1081.37183	119.92368	945.40948	-1225.98608	114.31743	955.89691	-956.67645	-93.41646	608.62988	-965.36707	-107.87057	477.50742	-973.74164	27.01099	356.39612	-1033.22229	170.23073	193.60669	-1094.50867	214.54417	194.87860	-1015.74548	91.27077	72.16220	-1295.10376	-21.98813	606.31769	-1269.17395	-30.92127	446.99493	-1274.41772	37.89489	282.34186	-1220.66394	83.76524	82.28927	-1170.91382	136.79492	50.02585	-1215.84839	-53.97650	34.65379	-1145.62512	-123.55092	1702.45093	-3101.87744	1973.20789	1023.37231	-3140.67090	2012.51624	1022.09485 
82	0.810	-1064.45764	-91.50765	1667.69958	-1159.86768	-153.35907	1667.75293	-1125.45752	13.08987	1634.81323	-1226.50659	-50.26969	1634.05872	-1148.36633	56.13949	1438.82898	-1142.71875	100.21378	1144.05933	-1129.68982	-87.05703	1365.92493	-1120.40540	-124.58899	1212.98315	-1222.33911	110.35054	1245.17383	-977.82965	-9.29497	1403.51550	-888.27875	41.42701	1228.15051	-881.06549	63.89922	1075.50232	-857.13617	1.65950	975.42401	-870.94696	-105.93314	887.77625	-854.48657	-53.06323	866.02515	-840.17334	-115.83438	812.03619	-1285.42358	-36.14111	1400.29773	-1391.48511	20.59809	1205.77527	-1398.99377	16.85618	1079.08936	-1427.44873	-23.19669	964.01904	-1403.33484	-113.78503	855.56476	-1443.36914	-72.84888	851.99677	-1447.16235	-119.93107	781.83240	-1025.99390	-74.24604	938.75964	-1242.53040	-82.87302	942.63947	-1081.04187	107.73138	946.41150	-1225.63892	102.73422	956.98102	-956.97461	-111.24429	611.54254	-966.72711	-127.86874	480.49774	-975.39844	1.83902	352.98596	-1035.20557	136.81934	183.34859	-1096.98645	181.50821	181.84422	-1016.96503	50.47537	68.21436	-1295.04004	-28.51395	606.86914	-1269.17639	-34.26672	447.04391	-1274.40649	36.20217	283.50113	-1220.61731	83.44968	83.52473	-1170.57178	136.26190	51.54185	-1215.91370	-54.09830	34.62093	-1144.33984	-136.95555	1702.97607	-3101.94507	1973.18286	1023.44006	-3140.71118	2012.50317	1022.15717 
83	0.820	-1063.36353	-104.54948	1667.99988	-1158.64868	-166.76828	1668.19214	-1125.08179	-0.28643	1635.47083	-1225.67114	-63.84266	1634.96375	-1148.24695	43.07210	1439.51648	-1143.23120	87.64399	1144.83057	-1129.56836	-99.90228	1366.54163	-1120.59790	-137.23062	1213.37598	-1223.13501	97.28462	1246.18298	-977.76538	-21.97364	1403.77222	-888.91400	30.16026	1228.40808	-882.76135	54.48827	1076.37708	-858.17194	-3.53240	973.92963	-870.85999	-107.91341	881.88245	-855.54675	-53.87958	862.56659	-840.02472	-113.89999	805.66327	-1285.39136	-49.37534	1401.76721	-1392.15271	6.41343	1207.42261	-1400.31689	1.22772	1080.46582	-1428.23596	-42.99284	966.42957	-1403.51160	-137.81293	861.91943	-1443.49316	-96.87566	856.30389	-1446.96216	-146.86705	788.29633	-1026.53528	-86.65528	939.61298	-1243.14514	-94.98792	942.88702	-1080.80066	95.58318	947.26666	-1225.30530	91.08405	957.74933	-957.42780	-128.56046	614.30200	-968.34436	-147.36972	483.29944	-976.64825	-23.62273	348.63760	-1037.27234	102.93161	172.91383	-1099.22180	147.38188	168.15701	-1017.36847	9.49848	63.90739	-1294.94031	-35.11135	607.23383	-1269.36633	-37.76590	447.49323	-1274.35730	34.20450	284.72821	-1220.68945	82.79065	84.89608	-1170.37000	135.73077	53.30695	-1216.00305	-54.30498	34.72889	-1143.10168	-150.36153	1703.39636	-3102.03857	1973.18982	1023.38800	-3140.66895	2012.53540	1022.10156 
84	0.830	-1062.35742	-117.79514	1668.05859	-1157.44849	-180.25606	1668.63977	-1124.04541	-13.35512	1635.80078	-1224.79993	-77.36031	1635.65430	-1148.80273	30.12123	1440.29626	-1143.67017	75.07579	1145.52136	-1129.40784	-112.81628	1366.87659	-1120.71570	-149.81223	1213.54309	-1223.79224	84.14809	1247.05579	-977.57800	-34.74340	1403.83582	-889.52838	18.82240	1228.41443	-884.27649	45.23207	1076.78113	-859.05884	-8.82548	972.61713	-870.70526	-109.77463	876.32892	-856.25287	-54.69875	859.26080	-840.11841	-111.98587	799.73676	-1285.10522	-62.69016	1402.90820	-1392.64587	-7.63943	1208.85156	-1401.58374	-14.25729	1081.73010	-1429.16052	-62.53868	968.84631	-1403.55188	-161.52910	868.43030	-1443.03259	-120.82913	860.92352	-1446.54272	-173.50041	795.03632	-1026.59351	-99.53646	940.52258	-1243.61841	-106.26907	942.63544	-1080.55249	83.41825	947.94299	-1224.94836	79.51130	958.24054	-957.97858	-145.50850	616.80786	-970.08093	-166.48061	485.78308	-977.71735	-49.31825	343.54483	-1039.20203	68.09647	161.97548	-1101.46680	111.77509	153.86453	-1017.45605	-32.55053	60.74442	-1295.09949	-41.72631	607.73749	-1269.34692	-41.65367	447.78513	-1274.18481	31.95299	285.92776	-1220.55737	82.04298	86.08447	-1170.46619	134.88829	55.27573	-1216.08850	-54.49554	34.59702	-1141.70837	-163.74330	1703.73657	-3101.93457	1973.09241	1023.49304	-3140.70605	2012.53186	1021.93268 
